<svg width="40" height="39" viewBox="0 0 40 39" fill="none" xmlns="http://www.w3.org/2000/svg">
<path d="M19.9999 0C15.2509 0.000196864 10.6569 1.68965 7.03994 4.76607C3.42297 7.84249 1.01905 12.1051 0.258319 16.7913C-0.502411 21.4774 0.429687 26.2812 2.88783 30.3432C5.34598 34.4052 9.16976 37.4602 13.675 38.9617C14.675 39.1367 15.05 38.5369 15.05 38.012C15.05 37.5372 15.025 35.9627 15.025 34.2883C9.99998 35.213 8.69999 33.0638 8.3 31.9392C7.85615 30.8454 7.15256 29.8761 6.25001 29.1151C5.55002 28.7402 4.55002 27.8155 6.22499 27.7906C6.86456 27.86 7.47798 28.0824 8.01326 28.4392C8.54854 28.7959 8.98992 29.2763 9.29999 29.8398C9.57353 30.3311 9.94134 30.7635 10.3824 31.1124C10.8234 31.4613 11.3289 31.7197 11.87 31.873C12.4111 32.0262 12.9772 32.0712 13.5357 32.0053C14.0942 31.9395 14.6343 31.7641 15.1249 31.4893C15.2115 30.4729 15.6646 29.5225 16.3999 28.8153C11.95 28.3154 7.3 26.5909 7.3 18.9436C7.2719 16.9566 8.00537 15.0341 9.34999 13.5704C8.73856 11.8435 8.8101 9.94824 9.54999 8.27225C9.54999 8.27225 11.2249 7.7474 15.0499 10.3215C18.3225 9.4218 21.7773 9.4218 25.0499 10.3215C28.8748 7.72243 30.5498 8.27225 30.5498 8.27225C31.2898 9.94822 31.3614 11.8435 30.7498 13.5704C32.0985 15.0316 32.8326 16.9558 32.7998 18.9436C32.7998 26.6159 28.1248 28.3154 23.6749 28.8153C24.1522 29.2989 24.5198 29.8795 24.7527 30.5177C24.9857 31.1559 25.0785 31.8367 25.0249 32.514C25.0249 35.1881 24.9999 37.3373 24.9999 38.0121C24.9999 38.537 25.3749 39.1617 26.3749 38.9618C30.8721 37.4481 34.6849 34.3858 37.1326 30.3218C39.5803 26.2577 40.5035 21.4564 39.7375 16.7748C38.9715 12.0932 36.5661 7.83608 32.9508 4.7634C29.3354 1.69073 24.7453 0.00246897 19.9999 0Z" fill="#DFAEA1"/>
</svg>
