<svg width="40" height="39" viewBox="0 0 40 39" fill="none" xmlns="http://www.w3.org/2000/svg">
<g clip-path="url(#clip0_7_2)">
<path d="M31.0218 0H8.97818C4.01967 0 0 3.91918 0 8.75372V30.2463C0 35.0808 4.01967 39 8.97818 39H31.0218C35.9803 39 40 35.0808 40 30.2463V8.75372C40 3.91918 35.9803 0 31.0218 0Z" fill="#DFAEA1"/>
<path d="M11.0842 16.2106H15.2408V29.2871H11.0842V16.2106ZM13.2041 9.71284C13.6803 9.71285 14.1458 9.85037 14.542 10.1081C14.9381 10.3658 15.2471 10.7321 15.43 11.1608C15.6129 11.5895 15.6614 12.0614 15.5695 12.517C15.4776 12.9726 15.2494 13.3914 14.9136 13.7207C14.5778 14.05 14.1496 14.2749 13.6828 14.3671C13.2161 14.4593 12.7318 14.4147 12.291 14.2388C11.8503 14.063 11.4728 13.7638 11.2063 13.3791C10.9397 12.9943 10.796 12.5412 10.7933 12.0769C10.7914 11.7671 10.8524 11.46 10.9728 11.1732C11.0931 10.8865 11.2704 10.6258 11.4944 10.4061C11.7185 10.1864 11.9849 10.012 12.2783 9.89305C12.5717 9.77408 12.8863 9.71284 13.2041 9.71284Z" fill="white"/>
<path d="M17.9009 16.2106H21.9051V17.9938C22.3059 17.3268 22.885 16.7785 23.5804 16.4074C24.2759 16.0362 25.0616 15.8562 25.8538 15.8864C30.0104 15.8864 30.8556 18.5882 30.8556 22.114V29.2871H26.699V22.965C26.699 21.452 26.699 19.4932 24.5376 19.4932C22.3762 19.4932 22.0436 21.1413 22.0436 22.8434V29.3142H17.8871L17.9009 16.2106Z" fill="white"/>
</g>
<defs>
<clipPath id="clip0_7_2">
<rect width="40" height="39" fill="white"/>
</clipPath>
</defs>
</svg>
