<svg width="40" height="40" viewBox="0 0 40 40" fill="none" xmlns="http://www.w3.org/2000/svg">
<path d="M36.65 10.9117C36.6362 10.1966 36.5788 9.48308 36.4784 8.77499C36.3586 8.14516 36.1552 7.53419 35.8734 6.95833C35.2565 5.7405 34.2675 4.75095 33.05 4.13333C32.4779 3.85285 31.8709 3.64995 31.245 3.52999C30.5315 3.42747 29.8124 3.36902 29.0917 3.35499C28.7867 3.34333 28.3917 3.33833 28.2084 3.33833L11.795 3.33333C11.6117 3.33333 11.2167 3.33833 10.9117 3.34999C10.1967 3.36377 9.48312 3.4211 8.77504 3.52166C8.14521 3.64139 7.53423 3.84487 6.95837 4.12666C5.74061 4.74366 4.75109 5.7326 4.13337 6.95C3.85297 7.52219 3.65007 8.1292 3.53004 8.75499C3.42705 9.46847 3.36805 10.1876 3.35337 10.9083C3.34337 11.2133 3.33671 11.6083 3.33671 11.7917L3.33337 28.205C3.33337 28.3883 3.33837 28.7833 3.35004 29.0883C3.36382 29.8034 3.42115 30.5169 3.52171 31.225C3.64146 31.8548 3.84493 32.4658 4.12671 33.0417C4.74371 34.2594 5.73264 35.2489 6.95004 35.8667C7.52225 36.147 8.12925 36.3499 8.75504 36.47C9.46854 36.5725 10.1877 36.631 10.9084 36.645C11.2134 36.6567 11.6084 36.6617 11.7917 36.6617L28.205 36.665C28.3884 36.665 28.7834 36.66 29.0884 36.6483C29.8034 36.6345 30.517 36.5772 31.225 36.4767C31.8549 36.3569 32.4658 36.1534 33.0417 35.8717C34.2601 35.2549 35.2502 34.266 35.8684 33.0483C36.1488 32.4762 36.3517 31.8691 36.4717 31.2433C36.5748 30.5299 36.6338 29.8107 36.6484 29.09C36.6584 28.785 36.665 28.39 36.665 28.2067L36.6667 11.795C36.6667 11.6117 36.6617 11.2167 36.65 10.9117ZM20.3617 31.595H20.3567C18.3728 31.5946 16.4206 31.0972 14.6784 30.1483L8.37837 31.8L10.065 25.645C8.75913 23.3789 8.23733 20.7452 8.58054 18.1523C8.92375 15.5594 10.1128 13.1522 11.9633 11.3039C13.8139 9.45555 16.2225 8.26936 18.8158 7.92924C21.4091 7.58911 24.0421 8.11404 26.3067 9.42265C28.5713 10.7313 30.3409 12.7504 31.3411 15.1671C32.3414 17.5838 32.5164 20.2629 31.839 22.7892C31.1617 25.3154 29.6698 27.5477 27.5947 29.1398C25.5196 30.7319 22.9772 31.5949 20.3617 31.595Z" fill="#DFAEA1"/>
<path d="M20.3667 9.83499C18.6018 9.83448 16.8691 10.3068 15.3486 11.2028C13.8281 12.0988 12.5754 13.3858 11.7208 14.93C10.8662 16.4741 10.4409 18.219 10.4892 19.9832C10.5374 21.7474 11.0574 23.4665 11.995 24.9617L12.23 25.335L11.2317 28.9783L14.97 27.9983L15.33 28.2117C16.8518 29.1129 18.588 29.5884 20.3567 29.5883H20.3617C22.9814 29.5888 25.4939 28.5485 27.3466 26.6965C29.1993 24.8444 30.2404 22.3322 30.2409 19.7125C30.2413 17.0928 29.2011 14.5803 27.349 12.7276C25.4969 10.8749 22.9847 9.83377 20.365 9.83333L20.3667 9.83499ZM26.1734 23.9517C25.9549 24.3124 25.6641 24.6241 25.3194 24.8671C24.9746 25.11 24.5833 25.279 24.17 25.3633C23.5461 25.4703 22.9058 25.4304 22.3 25.2467C21.7255 25.0676 21.1608 24.8585 20.6084 24.62C18.5579 23.591 16.8102 22.0466 15.5367 20.1383C14.842 19.2549 14.4203 18.188 14.3234 17.0683C14.3154 16.6062 14.4037 16.1474 14.5828 15.7213C14.7618 15.2952 15.0277 14.911 15.3634 14.5933C15.4626 14.4802 15.5841 14.3887 15.7203 14.3248C15.8566 14.2608 16.0046 14.2257 16.155 14.2217C16.3517 14.2217 16.55 14.2217 16.7234 14.2317C16.9067 14.24 17.15 14.1617 17.39 14.7417C17.64 15.335 18.2334 16.7967 18.3067 16.945C18.3538 17.0228 18.3807 17.111 18.3851 17.2018C18.3894 17.2926 18.3711 17.3831 18.3317 17.465C18.2569 17.6433 18.157 17.81 18.035 17.96C17.885 18.1333 17.7234 18.3467 17.59 18.48C17.44 18.6283 17.2867 18.7883 17.4584 19.085C17.9042 19.8484 18.4608 20.5415 19.11 21.1417C19.8144 21.7679 20.6226 22.2665 21.4984 22.615C21.795 22.765 21.9684 22.7383 22.1417 22.54C22.315 22.3417 22.8834 21.6733 23.0817 21.3767C23.28 21.08 23.4767 21.13 23.7484 21.2283C24.02 21.3267 25.4817 22.045 25.7784 22.195C26.075 22.345 26.2734 22.4167 26.3467 22.54C26.428 23.0174 26.3677 23.5081 26.1734 23.9517Z" fill="#DFAEA1"/>
</svg>
